HIERARCHY
ROOT Hips
{
	OFFSET 0.00 0.00 0.00
	CHANNELS 6 Xposition Yposition Zposition Xrotation Yrotation Zrotation
	JOINT LeftUpLeg
	{
		OFFSET 3.34807 0.00000 0.00000
		CHANNELS 3 Xrotation Yrotation Zrotation
		JOINT LeftLeg
		{
			OFFSET 0.00000 -16.98552 0.00000
			CHANNELS 3 Xrotation Yrotation Zrotation
			JOINT LeftFoot
			{
				OFFSET 0.00000 -16.83686 0.00000
				CHANNELS 3 Xrotation Yrotation Zrotation
				JOINT LeftToeBase
				{
					OFFSET 0.00000 -1.59599 5.95633
					CHANNELS 3 Xrotation Yrotation Zrotation
					End Site
					{
						OFFSET 0.00000 0.00000 2.95275
					}
				}
			}
		}
	}
	JOINT RightUpLeg
	{
		OFFSET -3.34807 0.00000 0.00000
		CHANNELS 3 Xrotation Yrotation Zrotation
		JOINT RightLeg
		{
			OFFSET 0.00000 -16.98552 0.00000
			CHANNELS 3 Xrotation Yrotation Zrotation
			JOINT RightFoot
			{
				OFFSET 0.00000 -16.83686 0.00000
				CHANNELS 3 Xrotation Yrotation Zrotation
				JOINT RightToeBase
				{
					OFFSET 0.00000 -1.59599 5.95633
					CHANNELS 3 Xrotation Yrotation Zrotation
					End Site
					{
						OFFSET 0.00000 0.00000 2.95275
					}
				}
			}
		}
	}
	JOINT Spine
	{
		OFFSET 0.00000 0.03937 0.00000
		CHANNELS 3 Xrotation Yrotation Zrotation
		JOINT Spine1
		{
			OFFSET 0.00000 7.93124 0.00000
			CHANNELS 3 Xrotation Yrotation Zrotation
			JOINT Neck
			{
				OFFSET 0.00000 8.48368 0.00000
				CHANNELS 3 Xrotation Yrotation Zrotation
				JOINT Head
				{
					OFFSET 0.00000 6.65077 0.00000
					CHANNELS 3 Xrotation Yrotation Zrotation
					End Site
					{
						OFFSET 0.00000 4.52755 0.00000
					}
				}
			}
			JOINT LeftShoulder
			{
				OFFSET 0.00000 8.48368 0.00000
				CHANNELS 3 Xrotation Yrotation Zrotation
				JOINT LeftArm
				{
					OFFSET 7.74502 -0.00003 0.00000
					CHANNELS 3 Xrotation Yrotation Zrotation
					JOINT LeftForeArm
					{
						OFFSET 12.49824 -0.00005 0.00000
						CHANNELS 3 Xrotation Yrotation Zrotation
						JOINT LeftHand
						{
							OFFSET 9.88337 -0.00004 0.00000
							CHANNELS 3 Xrotation Yrotation Zrotation
							JOINT LeftHandThumb
							{
								OFFSET 0.00000 0.00000 0.00000
								CHANNELS 3 Xrotation Yrotation Zrotation
								End Site
								{
									OFFSET 0.00000 0.00000 3.93700
								}
							}
							JOINT L_Wrist_End
							{
								OFFSET 3.93700 -0.00001 0.00000
								CHANNELS 3 Xrotation Yrotation Zrotation
							}
						}
					}
				}
			}
			JOINT RightShoulder
			{
				OFFSET 0.00000 8.48368 0.00000
				CHANNELS 3 Xrotation Yrotation Zrotation
				JOINT RightArm
				{
					OFFSET -7.74502 -0.00003 0.00000
					CHANNELS 3 Xrotation Yrotation Zrotation
					JOINT RightForeArm
					{
						OFFSET -12.49824 -0.00005 0.00000
						CHANNELS 3 Xrotation Yrotation Zrotation
						JOINT RightHand
						{
							OFFSET -9.88337 -0.00004 0.00000
							CHANNELS 3 Xrotation Yrotation Zrotation
							JOINT RightHandThumb
							{
								OFFSET 0.00000 0.00000 0.00000
								CHANNELS 3 Xrotation Yrotation Zrotation
								End Site
								{
									OFFSET 0.00000 0.00000 3.93700
								}
							}
							JOINT R_Wrist_End
							{
								OFFSET -5.39369 -0.00002 0.00000
								CHANNELS 3 Xrotation Yrotation Zrotation
							}
						}
					}
				}
			}
		}
	}
}
MOTION
Frames: 17
Frame Time: 0.033332
 -44.1947 36.0376 -5.9384 176.1295 -83.6854 166.5331 -3.6388 17.3739 11.9249 14.0163 0.0000 0.0000 -14.2687 -0.5835 -16.1516 5.7148 0.0000 0.0000 -51.8193 1.3897 3.6770 95.8548 -0.0000 0.0000 15.8077 -8.9996 34.4299 4.8086 -0.0000 0.0000 -2.4570 -8.3264 0.6698 16.0073 -9.4911 4.4080 -14.3250 16.7753 7.1071 -5.0454 -1.4707 -5.3447 -19.8163 8.2516 32.1025 -71.6101 -4.8915 -68.4484 -0.0002 -42.7057 -0.0001 -9.2697 -28.6079 -12.5819 -0.0000 -0.0000 0.0000 -0.0000 -0.0000 0.0000 30.5530 -19.4561 -13.7668 2.7665 24.4464 66.7772 -0.0000 0.1509 0.0000 71.0595 -70.8793 -105.2861 -0.0000 -0.0000 0.0000 -0.0000 -0.0000 0.0000
 -43.2860 36.0962 -5.8914 179.5911 -82.7639 169.8648 -4.9453 17.5847 12.3893 14.2574 -0.0000 0.0000 -13.4791 -1.5011 -16.4278 7.0725 0.0000 0.0000 -49.9611 1.8925 4.5935 104.0483 -0.0000 0.0000 16.3703 -8.7991 32.7898 5.4697 0.0000 0.0000 -2.7249 -8.3270 0.4312 16.4480 -9.4521 4.5830 -14.4519 17.1159 7.3145 -5.0494 -1.0861 -4.9663 -20.2106 7.2510 32.9360 -73.8689 -5.7218 -65.8126 -0.0002 -39.3669 -0.0001 -3.2867 -28.7758 -19.4951 -0.0000 0.0000 -0.0000 -0.0000 0.0000 -0.0000 30.8169 -20.3957 -15.5214 4.6395 19.4580 64.6060 0.0000 -2.4461 0.0000 70.5273 -71.7737 -107.9054 -0.0000 0.0000 -0.0000 -0.0000 0.0000 -0.0000
 -42.3327 36.0318 -5.8330 -176.5970 -82.3396 173.9504 -6.5566 17.1853 12.4409 15.5738 -0.0000 0.0000 -13.3357 -1.8649 -16.0345 7.9129 0.0000 -0.0000 -45.8307 2.0802 4.5737 108.5856 0.0000 0.0000 15.7438 -8.6511 31.4589 5.4144 0.0000 0.0000 -2.8079 -8.1927 0.0506 17.0673 -9.4182 4.3810 -14.4333 16.7838 6.9267 -5.5911 -0.7305 -3.8030 -20.5186 7.1887 33.8011 -75.3056 -6.4114 -65.7049 -0.0002 -37.3280 -0.0001 8.8325 -30.6200 -31.9872 -0.0000 -0.0000 0.0000 -0.0000 -0.0000 0.0000 31.1981 -21.1007 -17.0344 5.2918 16.7858 63.7671 0.0000 -4.7934 0.0000 74.5158 -72.3430 -107.8801 -0.0000 -0.0000 0.0000 -0.0000 -0.0000 0.0000
 -41.3399 35.8772 -5.7872 -173.8675 -82.8654 177.3194 -8.6815 15.7499 11.9969 17.7780 -0.0000 0.0000 -13.4765 -1.6381 -15.4587 8.3953 0.0000 -0.0000 -40.0195 1.8589 3.4785 109.4158 0.0000 0.0000 15.1201 -7.8108 29.3250 5.8617 -0.0000 0.0000 -2.9065 -7.9461 -0.4193 17.6810 -9.4425 3.7800 -13.8087 16.1446 6.3390 -7.3457 -0.9682 -2.8639 -20.8830 7.4685 34.1530 -75.6310 -7.8569 -67.6889 -0.0002 -36.9074 -0.0001 -3.3549 -24.1734 -17.9263 -0.0000 0.0000 -0.0000 -0.0000 0.0000 -0.0000 31.3626 -21.3727 -17.9227 5.9866 16.4486 64.4241 0.0000 -7.0140 0.0000 78.5484 -71.5817 -104.8791 -0.0000 -0.0000 0.0000 -0.0000 -0.0000 0.0000
 -40.2942 35.6376 -5.7699 -170.7954 -84.5052 -178.8381 -11.6068 13.3012 11.3896 21.1111 -0.0000 0.0000 -13.8310 -1.7239 -15.3546 9.2283 -0.0000 0.0000 -33.0256 0.7755 1.6921 106.8238 -0.0000 0.0000 16.3407 -6.5517 34.0754 4.7347 -0.0000 0.0000 -2.8578 -7.6216 -0.9841 18.2331 -9.4201 3.0958 -13.4614 14.9018 5.8583 -8.5551 -1.8918 -2.0346 -20.5271 7.9499 33.9645 -75.2582 -10.0090 -71.0562 -0.0002 -38.9532 -0.0001 -14.7011 -21.5786 -0.7125 -0.0000 0.0000 -0.0000 -0.0000 0.0000 -0.0000 31.0129 -21.1974 -18.1925 6.7670 17.7223 66.5778 0.0000 -8.6785 0.0000 81.7475 -70.1848 -101.4713 -0.0000 0.0000 -0.0000 -0.0000 0.0000 -0.0000
 -39.1756 35.2795 -5.8084 -168.8056 -86.8464 -176.2040 -15.6667 10.7010 10.8849 25.3441 0.0000 0.0000 -14.1812 -2.4609 -15.1614 8.9567 0.0000 0.0000 -25.9979 -1.0935 0.2883 101.7235 -0.0000 0.0000 16.7908 -5.0868 32.5485 4.3413 -0.0000 0.0000 -2.8102 -7.1960 -1.5806 18.6780 -9.2000 2.5599 -13.0994 13.4990 5.5587 -9.6484 -3.3681 -1.4872 -19.8769 8.0813 33.4835 -73.6716 -12.6102 -75.1484 -0.0002 -42.8664 -0.0001 -16.2892 -20.7653 3.8757 -0.0000 0.0000 -0.0000 -0.0000 0.0000 -0.0000 30.6346 -20.7333 -17.8134 6.3232 18.9549 69.9848 0.0000 -9.1966 0.0000 84.1545 -69.0959 -99.8109 -0.0000 0.0000 -0.0000 -0.0000 0.0000 -0.0000
 -37.9859 34.7590 -5.8678 -172.2839 -89.5538 -178.9157 -20.6419 7.7714 9.9314 30.4346 -0.0000 0.0000 -14.6014 -3.3249 -15.2206 9.1756 -0.0000 -0.0000 -19.1936 -3.7534 -0.7661 94.9384 -0.0000 0.0000 15.2171 -4.9845 28.7851 0.9386 -0.0000 -0.0000 -2.6657 -6.8356 -2.1611 18.9177 -9.0687 2.0015 -12.8125 12.1703 5.3126 -10.6509 -4.9257 -1.0784 -18.7808 8.4874 32.8577 -71.3901 -15.7445 -79.5292 -0.0002 -47.4433 -0.0001 -20.0380 -21.1798 10.2062 -0.0000 0.0000 -0.0000 -0.0000 0.0000 -0.0000 29.8219 -19.8406 -17.2452 4.9403 20.9412 74.1616 0.0000 -8.7379 0.0000 82.4822 -64.6974 -98.0759 -0.0000 0.0000 -0.0000 -0.0000 0.0000 -0.0000
 -36.7204 34.0696 -5.9157 27.0382 -87.7782 21.3991 -26.2720 4.6813 8.2497 35.4269 0.0000 0.0000 -14.8730 -4.0144 -14.7894 9.0478 0.0000 0.0000 -13.4001 -6.8590 -1.5943 87.5251 -0.0000 0.0000 11.5251 -7.1423 27.6338 -0.3029 0.0000 0.0000 -2.8073 -6.3554 -2.6860 18.9720 -8.8513 1.4225 -12.6703 10.7236 4.8733 -11.4422 -6.5289 -0.5863 -17.3772 9.2500 31.3802 -69.1440 -19.3457 -84.2785 -0.0003 -51.3466 -0.0001 -22.7510 -21.3751 17.8985 -0.0000 -0.0000 0.0000 -0.0000 -0.0000 0.0000 28.6689 -18.4812 -16.4701 2.3819 23.6077 78.6932 0.0000 -7.8082 0.0000 80.6973 -68.8607 -99.9773 -0.0000 0.0000 -0.0000 -0.0000 0.0000 -0.0000
 -35.3842 33.2731 -5.9733 27.2949 -85.7651 22.6807 -32.0239 2.3538 6.2828 40.2988 -0.0000 0.0000 -14.7772 -3.8089 -14.3679 9.0857 -0.0000 0.0000 -8.3138 -9.8341 -1.8598 79.6843 -0.0000 0.0000 7.2756 -10.9585 25.5199 -1.8966 0.0000 0.0000 -2.9060 -5.6038 -3.1634 19.2535 -8.3539 0.8119 -12.5216 9.3265 4.5834 -12.7522 -8.2537 -0.1551 -16.3098 9.9043 29.7001 -66.6293 -24.6767 -89.7737 -0.0003 -54.9557 -0.0002 -41.7486 -56.3816 98.3863 -0.0000 0.0000 -0.0000 -0.0000 0.0000 -0.0000 26.5167 -16.1810 -15.1906 -1.1574 25.6611 82.8195 0.0000 -6.9782 0.0000 75.9966 -70.0242 -102.5156 -0.0000 0.0000 -0.0000 -0.0000 0.0000 -0.0000
 -33.9135 32.4470 -6.0341 34.3351 -84.4498 30.7887 -37.8486 0.7165 4.2182 44.0720 -0.0000 0.0000 -14.0534 -2.7471 -13.5256 9.0310 0.0000 0.0000 -4.6686 -12.2226 -1.8901 71.2530 -0.0000 0.0000 1.8940 -14.9119 26.3424 -3.0987 0.0000 -0.0000 -3.0169 -4.5451 -3.4623 19.3278 -7.5910 0.1011 -12.6204 8.3003 4.4591 -14.2457 -9.9185 0.0805 -14.1150 11.0957 26.8502 -64.6063 -28.2632 -94.2888 -0.0003 -54.7507 -0.0002 -15.0293 -66.4459 114.7362 -0.0000 0.0000 -0.0000 -0.0000 0.0000 -0.0000 24.3793 -13.6874 -13.0588 -6.6136 28.9759 85.9938 0.0000 -6.1668 0.0000 68.4357 -74.5405 -107.0921 -0.0000 0.0000 -0.0000 -0.0000 0.0000 -0.0000
 -32.3392 31.6860 -6.1407 38.6541 -83.7095 35.6929 -42.9136 -0.7033 2.7147 46.4361 -0.0000 0.0000 -12.3524 -1.2981 -12.9755 8.6966 -0.0000 0.0000 -1.3865 -14.0012 -1.0556 62.5150 -0.0000 0.0000 -2.6328 -14.7797 23.9719 -24.3061 0.0000 0.0000 -3.1127 -3.6578 -3.4569 19.9415 -6.8761 -0.2753 -12.9761 7.7123 4.4271 -15.5328 -11.2454 0.3119 -11.9641 12.0497 24.1182 -60.0707 -29.5460 -97.9660 -0.0003 -49.9295 -0.0001 -23.3946 -59.7435 89.1006 -0.0000 0.0000 -0.0000 -0.0000 0.0000 -0.0000 21.1885 -10.5829 -10.6814 -13.7641 30.7252 88.0945 0.0000 -5.8974 0.0000 54.6641 -49.0503 -98.3617 -0.0000 -0.0000 0.0000 -0.0000 -0.0000 0.0000
 -30.6301 31.0342 -6.2616 49.6546 -84.8317 47.1329 -46.5779 -0.6774 2.7214 47.3031 -0.0000 0.0000 -9.6756 0.0344 -12.5057 8.3911 -0.0000 0.0000 0.2178 -13.3190 -0.1340 60.0988 -0.0000 0.0000 -12.8960 -18.9645 26.2631 -24.5016 0.0000 0.0000 -2.5696 -2.6127 -3.3383 19.9893 -5.7734 -0.3253 -13.1796 7.4613 4.3055 -15.8281 -11.7138 0.3445 -10.1250 12.1410 21.4682 -51.5285 -27.4844 -99.0840 -0.0002 -42.1956 -0.0001 -24.7380 -54.9306 75.4750 -0.0000 0.0000 -0.0000 -0.0000 0.0000 -0.0000 18.4640 -6.8895 -8.9594 -23.4689 29.6340 89.0407 0.0000 -5.6310 0.0000 57.0406 -77.4037 -112.4536 -0.0000 0.0000 -0.0000 -0.0000 0.0000 -0.0000
 -28.9035 30.6249 -6.4238 98.8532 -87.0894 96.0682 -48.0762 1.3705 5.6429 46.1685 -0.0000 0.0000 -6.1329 0.0396 -12.2982 8.0434 0.0000 0.0000 0.8303 -9.6423 1.0429 58.0106 -0.0000 0.0000 -21.1463 -20.2163 26.7529 -24.6997 0.0000 0.0000 -2.3728 -1.6402 -2.8138 21.0136 -4.7622 -0.3033 -13.3701 8.5943 4.9246 -15.7011 -11.2794 -0.3824 -8.1986 13.3171 19.0509 -40.9127 -24.1236 -98.1528 -0.0001 -31.8224 -0.0000 -26.3599 -38.2717 87.5696 -0.0000 0.0000 -0.0000 -0.0000 0.0000 -0.0000 16.2917 -2.0777 -7.7919 -35.4119 31.1684 88.6989 0.0000 -3.9993 0.0000 57.7807 -78.1675 -109.9041 -0.0000 0.0000 -0.0000 -0.0000 0.0000 -0.0000
 -27.1686 30.4459 -6.5871 168.2583 -83.7497 165.2363 -47.9745 4.9956 10.5518 42.4207 0.0000 0.0000 -1.2141 -1.2681 -13.4329 8.2061 0.0000 0.0000 -0.0417 -4.5567 1.4193 57.4408 -0.0000 0.0000 -28.1196 -19.7894 28.5578 -21.3809 0.0000 0.0000 -2.2919 -0.5923 -2.5583 21.8257 -3.4155 0.1659 -13.0260 10.2057 5.4462 -14.9299 -9.7585 -1.5598 -6.7335 15.3693 17.5397 -28.7832 -22.4345 -96.8271 -0.0001 -23.8271 -0.0000 -26.2931 -41.9633 96.3737 -0.0000 0.0000 -0.0000 -0.0000 0.0000 -0.0000 14.0891 2.1155 -7.8078 -48.8967 31.2972 88.8621 0.0000 -0.6802 0.0000 62.5778 -78.9831 -108.0556 -0.0000 0.0000 -0.0000 -0.0000 0.0000 -0.0000
 -25.4602 30.5123 -6.7464 -177.5029 -78.5869 179.0118 -47.2906 6.6461 15.3721 38.0865 -0.0000 0.0000 7.1216 -3.3248 -17.8262 5.2919 0.0000 -0.0000 -1.4018 -1.6592 1.3476 56.9070 -0.0000 0.0000 -31.9608 -17.9814 28.4947 -18.5778 0.0000 -0.0000 -2.2853 0.3295 -1.7782 22.5694 -2.2127 0.6186 -12.6317 11.8453 5.7949 -13.4190 -7.7535 -3.0042 -5.3748 18.4925 16.6132 -16.4458 -30.6360 -95.6754 -0.0001 -21.8111 -0.0000 -26.7609 -43.3588 96.6912 -0.0000 0.0000 -0.0000 -0.0000 0.0000 -0.0000 10.7170 6.6166 -10.4635 -59.9151 24.7391 90.3989 -0.0000 4.6380 0.0000 66.3217 -79.6253 -108.1191 -0.0000 -0.0000 0.0000 -0.0000 -0.0000 0.0000
 -23.8172 30.8251 -6.8815 -172.1164 -76.2211 -175.8241 -47.9897 7.5768 17.9209 35.1951 -0.0000 0.0000 18.7756 -3.4504 -25.5118 7.2021 -0.0000 -0.0000 -2.1374 -3.1196 0.9665 54.8673 -0.0000 0.0000 -34.2748 -16.1411 26.5663 -14.3248 -0.0000 -0.0000 -2.1812 0.9831 -0.8947 23.1501 -1.3590 0.9316 -12.5527 12.1696 6.1563 -12.0351 -6.5632 -4.1125 -3.6263 20.9968 16.5826 -5.5029 -32.4981 -94.5140 -0.0001 -20.3660 -0.0000 -34.5312 -43.3408 80.3609 -0.0000 0.0000 -0.0000 -0.0000 0.0000 -0.0000 9.2904 8.4881 -12.5447 -70.8755 23.7512 90.5942 -0.0000 10.7753 0.0000 64.9969 -80.2936 -105.2737 -0.0000 0.0000 -0.0000 -0.0000 0.0000 -0.0000
 -22.3846 31.3391 -6.9942 -168.5248 -76.3416 -171.9245 -50.0525 7.8370 18.3578 37.2288 0.0000 0.0000 23.8722 -1.8073 -29.0714 14.7376 0.0000 -0.0000 -1.9984 -5.6162 0.8812 51.0727 -0.0000 0.0000 -35.2341 -15.6204 23.4707 -10.4284 0.0000 0.0000 -2.1600 1.5074 -0.3056 22.8321 -0.7837 0.9682 -11.9988 11.9355 6.1011 -11.2397 -7.1654 -4.0995 -1.9520 22.9640 17.3206 5.0212 -41.5453 -92.2384 -0.0001 -19.8728 -0.0000 -15.8558 -23.9844 14.1092 -0.0000 0.0000 -0.0000 -0.0000 0.0000 -0.0000 6.8691 9.1428 -14.4832 -77.6448 22.6525 88.7658 -0.0001 16.7119 0.0000 59.2028 -80.4995 -108.7603 -0.0000 -0.0000 0.0000 -0.0000 -0.0000 0.0000
